<mxfile host="app.diagrams.net" agent="Mozilla/5.0 (Windows NT 10.0; Win64; x64; rv:136.0) Gecko/20100101 Firefox/136.0" version="26.1.1">
  <diagram name="Page-1" id="pjw3mkCLQhDm-gflXbUu">
    <mxGraphModel dx="1110" dy="1342" grid="0" gridSize="10" guides="1" tooltips="1" connect="1" arrows="1" fold="1" page="0" pageScale="1" pageWidth="850" pageHeight="1100" math="0" shadow="0">
      <root>
        <mxCell id="0" />
        <mxCell id="1" parent="0" />
        <mxCell id="qFtr-7WXoLBSctdHLBqN-2" style="edgeStyle=none;curved=1;rounded=0;orthogonalLoop=1;jettySize=auto;html=1;exitX=0.75;exitY=1;exitDx=0;exitDy=0;fontSize=12;startSize=8;endSize=8;" edge="1" parent="1" source="qFtr-7WXoLBSctdHLBqN-1">
          <mxGeometry relative="1" as="geometry">
            <mxPoint x="259" y="-48" as="targetPoint" />
          </mxGeometry>
        </mxCell>
        <mxCell id="qFtr-7WXoLBSctdHLBqN-3" style="edgeStyle=none;curved=1;rounded=0;orthogonalLoop=1;jettySize=auto;html=1;exitX=0.25;exitY=1;exitDx=0;exitDy=0;fontSize=12;startSize=8;endSize=8;" edge="1" parent="1" source="qFtr-7WXoLBSctdHLBqN-1">
          <mxGeometry relative="1" as="geometry">
            <mxPoint x="98" y="-54" as="targetPoint" />
          </mxGeometry>
        </mxCell>
        <mxCell id="qFtr-7WXoLBSctdHLBqN-1" value="&lt;div&gt;Portal&lt;/div&gt;&lt;div&gt;&lt;br&gt;&lt;/div&gt;" style="rounded=0;whiteSpace=wrap;html=1;" vertex="1" parent="1">
          <mxGeometry x="108" y="-198" width="120" height="60" as="geometry" />
        </mxCell>
        <mxCell id="qFtr-7WXoLBSctdHLBqN-10" style="edgeStyle=none;curved=1;rounded=0;orthogonalLoop=1;jettySize=auto;html=1;exitX=0.25;exitY=1;exitDx=0;exitDy=0;entryX=0.5;entryY=0;entryDx=0;entryDy=0;fontSize=12;startSize=8;endSize=8;" edge="1" parent="1" source="qFtr-7WXoLBSctdHLBqN-4" target="qFtr-7WXoLBSctdHLBqN-6">
          <mxGeometry relative="1" as="geometry" />
        </mxCell>
        <mxCell id="qFtr-7WXoLBSctdHLBqN-11" style="edgeStyle=none;curved=1;rounded=0;orthogonalLoop=1;jettySize=auto;html=1;exitX=0.5;exitY=1;exitDx=0;exitDy=0;entryX=0.5;entryY=0;entryDx=0;entryDy=0;fontSize=12;startSize=8;endSize=8;" edge="1" parent="1" source="qFtr-7WXoLBSctdHLBqN-4" target="qFtr-7WXoLBSctdHLBqN-7">
          <mxGeometry relative="1" as="geometry" />
        </mxCell>
        <mxCell id="qFtr-7WXoLBSctdHLBqN-12" style="edgeStyle=none;curved=1;rounded=0;orthogonalLoop=1;jettySize=auto;html=1;exitX=0.75;exitY=1;exitDx=0;exitDy=0;entryX=0.5;entryY=0;entryDx=0;entryDy=0;fontSize=12;startSize=8;endSize=8;" edge="1" parent="1" source="qFtr-7WXoLBSctdHLBqN-4" target="qFtr-7WXoLBSctdHLBqN-8">
          <mxGeometry relative="1" as="geometry" />
        </mxCell>
        <mxCell id="qFtr-7WXoLBSctdHLBqN-4" value="&lt;div&gt;Login/Register&lt;/div&gt;" style="rounded=0;whiteSpace=wrap;html=1;" vertex="1" parent="1">
          <mxGeometry x="34" y="-51" width="120" height="60" as="geometry" />
        </mxCell>
        <mxCell id="qFtr-7WXoLBSctdHLBqN-19" style="edgeStyle=none;curved=1;rounded=0;orthogonalLoop=1;jettySize=auto;html=1;exitX=0.5;exitY=1;exitDx=0;exitDy=0;entryX=0.5;entryY=0;entryDx=0;entryDy=0;fontSize=12;startSize=8;endSize=8;" edge="1" parent="1" source="qFtr-7WXoLBSctdHLBqN-6" target="qFtr-7WXoLBSctdHLBqN-17">
          <mxGeometry relative="1" as="geometry" />
        </mxCell>
        <mxCell id="qFtr-7WXoLBSctdHLBqN-6" value="Order Kit" style="rounded=0;whiteSpace=wrap;html=1;" vertex="1" parent="1">
          <mxGeometry x="-130" y="59" width="120" height="60" as="geometry" />
        </mxCell>
        <mxCell id="qFtr-7WXoLBSctdHLBqN-7" value="View Orders" style="rounded=0;whiteSpace=wrap;html=1;" vertex="1" parent="1">
          <mxGeometry x="34" y="59" width="120" height="60" as="geometry" />
        </mxCell>
        <mxCell id="qFtr-7WXoLBSctdHLBqN-8" value="View Phages" style="rounded=0;whiteSpace=wrap;html=1;" vertex="1" parent="1">
          <mxGeometry x="191" y="59" width="120" height="60" as="geometry" />
        </mxCell>
        <mxCell id="qFtr-7WXoLBSctdHLBqN-34" style="edgeStyle=none;curved=1;rounded=0;orthogonalLoop=1;jettySize=auto;html=1;fontSize=12;startSize=8;endSize=8;" edge="1" parent="1" source="qFtr-7WXoLBSctdHLBqN-16" target="qFtr-7WXoLBSctdHLBqN-33">
          <mxGeometry relative="1" as="geometry" />
        </mxCell>
        <mxCell id="qFtr-7WXoLBSctdHLBqN-16" value="&lt;div&gt;Kit Shipping&lt;/div&gt;" style="shape=umlActor;verticalLabelPosition=bottom;verticalAlign=top;html=1;outlineConnect=0;" vertex="1" parent="1">
          <mxGeometry x="-81" y="293" width="30" height="60" as="geometry" />
        </mxCell>
        <mxCell id="qFtr-7WXoLBSctdHLBqN-27" style="edgeStyle=none;curved=1;rounded=0;orthogonalLoop=1;jettySize=auto;html=1;exitX=0.5;exitY=1;exitDx=0;exitDy=0;fontSize=12;startSize=8;endSize=8;" edge="1" parent="1" source="qFtr-7WXoLBSctdHLBqN-17">
          <mxGeometry relative="1" as="geometry">
            <mxPoint x="-65" y="294" as="targetPoint" />
          </mxGeometry>
        </mxCell>
        <mxCell id="qFtr-7WXoLBSctdHLBqN-17" value="Is to UK Address?" style="rhombus;whiteSpace=wrap;html=1;" vertex="1" parent="1">
          <mxGeometry x="-110" y="156" width="80" height="80" as="geometry" />
        </mxCell>
        <mxCell id="qFtr-7WXoLBSctdHLBqN-25" style="edgeStyle=none;curved=1;rounded=0;orthogonalLoop=1;jettySize=auto;html=1;exitX=0.5;exitY=0;exitDx=0;exitDy=0;exitPerimeter=0;fontSize=12;startSize=8;endSize=8;" edge="1" parent="1" source="qFtr-7WXoLBSctdHLBqN-20" target="qFtr-7WXoLBSctdHLBqN-24">
          <mxGeometry relative="1" as="geometry" />
        </mxCell>
        <mxCell id="qFtr-7WXoLBSctdHLBqN-26" style="edgeStyle=none;curved=1;rounded=0;orthogonalLoop=1;jettySize=auto;html=1;exitX=0.5;exitY=0.5;exitDx=0;exitDy=0;exitPerimeter=0;fontSize=12;startSize=8;endSize=8;entryX=0.25;entryY=0.1;entryDx=0;entryDy=0;entryPerimeter=0;" edge="1" parent="1" source="qFtr-7WXoLBSctdHLBqN-20" target="qFtr-7WXoLBSctdHLBqN-16">
          <mxGeometry relative="1" as="geometry">
            <mxPoint x="-110" y="267" as="targetPoint" />
          </mxGeometry>
        </mxCell>
        <mxCell id="qFtr-7WXoLBSctdHLBqN-20" value="&lt;div&gt;Approval&lt;/div&gt;" style="shape=umlActor;verticalLabelPosition=bottom;verticalAlign=top;html=1;outlineConnect=0;" vertex="1" parent="1">
          <mxGeometry x="-243" y="159" width="30" height="60" as="geometry" />
        </mxCell>
        <mxCell id="qFtr-7WXoLBSctdHLBqN-22" style="edgeStyle=none;curved=1;rounded=0;orthogonalLoop=1;jettySize=auto;html=1;exitX=0;exitY=0.5;exitDx=0;exitDy=0;entryX=0.5;entryY=0.5;entryDx=0;entryDy=0;entryPerimeter=0;fontSize=12;startSize=8;endSize=8;" edge="1" parent="1" source="qFtr-7WXoLBSctdHLBqN-17" target="qFtr-7WXoLBSctdHLBqN-20">
          <mxGeometry relative="1" as="geometry" />
        </mxCell>
        <mxCell id="qFtr-7WXoLBSctdHLBqN-24" value="Order Cancelled" style="rounded=0;whiteSpace=wrap;html=1;" vertex="1" parent="1">
          <mxGeometry x="-284" y="59" width="120" height="60" as="geometry" />
        </mxCell>
        <mxCell id="qFtr-7WXoLBSctdHLBqN-28" value="No" style="text;html=1;align=center;verticalAlign=middle;resizable=0;points=[];autosize=1;strokeColor=none;fillColor=none;fontSize=16;" vertex="1" parent="1">
          <mxGeometry x="-173" y="167" width="38" height="31" as="geometry" />
        </mxCell>
        <mxCell id="qFtr-7WXoLBSctdHLBqN-29" value="&lt;div&gt;Yes&lt;/div&gt;" style="text;html=1;align=center;verticalAlign=middle;resizable=0;points=[];autosize=1;strokeColor=none;fillColor=none;fontSize=16;" vertex="1" parent="1">
          <mxGeometry x="-74" y="239" width="44" height="31" as="geometry" />
        </mxCell>
        <mxCell id="qFtr-7WXoLBSctdHLBqN-30" value="No" style="text;html=1;align=center;verticalAlign=middle;resizable=0;points=[];autosize=1;strokeColor=none;fillColor=none;fontSize=16;" vertex="1" parent="1">
          <mxGeometry x="-263" y="125" width="38" height="31" as="geometry" />
        </mxCell>
        <mxCell id="qFtr-7WXoLBSctdHLBqN-31" value="&lt;div&gt;Yes&lt;/div&gt;" style="text;html=1;align=center;verticalAlign=middle;resizable=0;points=[];autosize=1;strokeColor=none;fillColor=none;fontSize=16;" vertex="1" parent="1">
          <mxGeometry x="-197" y="229" width="44" height="31" as="geometry" />
        </mxCell>
        <mxCell id="qFtr-7WXoLBSctdHLBqN-37" style="edgeStyle=none;curved=1;rounded=0;orthogonalLoop=1;jettySize=auto;html=1;exitX=1;exitY=0.5;exitDx=0;exitDy=0;fontSize=12;startSize=8;endSize=8;" edge="1" parent="1" source="qFtr-7WXoLBSctdHLBqN-33" target="qFtr-7WXoLBSctdHLBqN-36">
          <mxGeometry relative="1" as="geometry" />
        </mxCell>
        <mxCell id="qFtr-7WXoLBSctdHLBqN-33" value="&lt;div&gt;User Submits Collection Details and returns kit&lt;/div&gt;" style="rounded=0;whiteSpace=wrap;html=1;" vertex="1" parent="1">
          <mxGeometry x="-257" y="409" width="120" height="60" as="geometry" />
        </mxCell>
        <mxCell id="qFtr-7WXoLBSctdHLBqN-36" value="&lt;div&gt;Phage Isolation &amp;amp; Storage&lt;/div&gt;" style="shape=umlActor;verticalLabelPosition=bottom;verticalAlign=top;html=1;outlineConnect=0;" vertex="1" parent="1">
          <mxGeometry x="-65" y="450" width="30" height="60" as="geometry" />
        </mxCell>
        <mxCell id="qFtr-7WXoLBSctdHLBqN-38" value="New Phages Added!" style="ellipse;whiteSpace=wrap;html=1;" vertex="1" parent="1">
          <mxGeometry x="-257" y="545" width="120" height="80" as="geometry" />
        </mxCell>
        <mxCell id="qFtr-7WXoLBSctdHLBqN-39" style="edgeStyle=none;curved=1;rounded=0;orthogonalLoop=1;jettySize=auto;html=1;entryX=0.958;entryY=0.288;entryDx=0;entryDy=0;entryPerimeter=0;fontSize=12;startSize=8;endSize=8;" edge="1" parent="1" source="qFtr-7WXoLBSctdHLBqN-36" target="qFtr-7WXoLBSctdHLBqN-38">
          <mxGeometry relative="1" as="geometry" />
        </mxCell>
        <mxCell id="qFtr-7WXoLBSctdHLBqN-41" style="edgeStyle=none;curved=1;rounded=0;orthogonalLoop=1;jettySize=auto;html=1;exitX=0.5;exitY=1;exitDx=0;exitDy=0;entryX=0.983;entryY=0.133;entryDx=0;entryDy=0;entryPerimeter=0;fontSize=12;startSize=8;endSize=8;" edge="1" parent="1" source="qFtr-7WXoLBSctdHLBqN-7" target="qFtr-7WXoLBSctdHLBqN-33">
          <mxGeometry relative="1" as="geometry">
            <Array as="points">
              <mxPoint x="70" y="379" />
            </Array>
          </mxGeometry>
        </mxCell>
      </root>
    </mxGraphModel>
  </diagram>
</mxfile>
